{"title":"Beethoven's Treasure Tail 2014 BRRip XviD AC3-FWOLF","uid":11324696,"size":1516479342,"categoryP":"video","categoryS":"movies","magnet":"?xt=urn:btih:c4362df9056b0889d6f2ebdef6c76236deda6b8d&amp;dn=Beethoven%27s+Treasure+Tail+2014+BRRip+XviD+AC3-FWOLF&amp;tr=udp%3A%2F%2Ftracker.openbittorrent.com%3A80&amp;tr=udp%3A%2F%2Fopen.demonii.com%3A1337&amp;tr=udp%3A%2F%2Ftracker.coppersurfer.tk%3A6969&amp;tr=udp%3A%2F%2Fexodus.desync.com%3A6969","seeders":0,"leechers":0,"uploader":"TvTeam","files":6,"time":1414620195,"description":" &lt;a href=&quot;http://www.torrenting.com&quot; rel=&quot;nofollow&quot; target=&quot;_NEW&quot;&gt;http://www.torrenting.com&lt;/a&gt;\n\nSign up is OPEN - for time being. Come and have fun.\n\n\n------------------------------------------------------------------------Beethoven's Treasure Tail (2014) BRRip XviD AC3-FWOLF\n\nimdb.... &lt;a href=&quot;\nhttp://www.imdb.com/title/tt3124476/&quot; rel=&quot;nofollow&quot; target=&quot;_NEW&quot;&gt;\nhttp://www.imdb.com/title/tt3124476/&lt;/a&gt;\n\n\nGet ready to howl with laughter in this all-new family \ncomedy starring America's favorite St. Bernard, the \none and only Beethoven! After a doggone disaster \nof a movie shoot, the big-hearted...\n\n\n\nDirector: Ron Oliver\n\n   \nStars:    Jonathan Silverman, Kristy Swanson, Bretton Manley\n\n\nFormat                                   : AVI\nFormat/Info                              : Audio Video Interleave\nFile size                                : 1.40 GiB\nDuration                                 : 1h 37mn\nOverall bit rate                         : 2 059 Kbps\n\nVideo\nID                                       : 0\nFormat                                   : MPEG-4 Visual\nFormat profile                           : Advanced Simple@L5\nFormat settings, BVOP                    : 2\nFormat settings, QPel                    : Yes\nFormat settings, GMC                     : No warppoints\nFormat settings, Matrix                  : Default (H.263)\nCodec ID                                 : XVID\nCodec ID/Hint                            : XviD\nDuration                                 : 1h 37mn\nBit rate                                 : 1 604 Kbps\nWidth                                    : 720 pixels\nHeight                                   : 400 pixels\nDisplay aspect ratio                     : 16:9\nFrame rate                               : 23.976 fps\nColor space                              : YUV\nChroma subsampling                       : 4:2:0\nBit depth                                : 8 bits\nScan type                                : Progressive\nCompression mode                         : Lossy\nBits/(Pixel*Frame)                       : 0.232\nStream size                              : 1.09 GiB (78%)\nWriting library                          : XviD 1.2.1 (UTC 2008-12-04)\n\nAudio\nID                                       : 1\nFormat                                   : AC-3\nFormat/Info                              : Audio Coding 3\nMode extension                           : CM (complete main)\nFormat settings, Endianness              : Big\nCodec ID                                 : 2000\nDuration                                 : 1h 37mn\nBit rate mode                            : Constant\nBit rate                                 : 448 Kbps\nChannel(s)                               : 6 channels\nChannel positions                        : Front: L C R, Side: L R, LFE\nSampling rate                            : 48.0 KHz\nBit depth                                : 16 bits\nCompression mode                         : Lossy\nStream size                              : 311 MiB (22%)\nAlignment                                : Aligned on interleaves\nInterleave, duration                     : 64 ms (1.53 video frames)\nInterleave, preload duration             : 192 ms\nTitle                                    : English\n\n\n\n\nEncoded....................FWOLF              \n\nSource.....................720p.BluRay.x264-BRMP 4.44 GB (Thanks!)\n\nSample.....................Yes\n\nSubs.......................(srt)English \n\n\n\n\n\n[img]http://s17.postimg.org/htqa6adsv/image.png[/img]\n\n\n\n\n[img]http://s11.postimg.org/v4585bnb7/image.png[/img]\n\n\n\n\n[img]http://s9.postimg.org/p8bnwijsv/image.png[/img]\n\n\n\n\nGreetz To: PsiX | Blacksheep | CFR | tomcat-12...\n.....and all P2P Encoders and Groups","torrent":{"xt":"urn:btih:c4362df9056b0889d6f2ebdef6c76236deda6b8d","amp;dn":"Beethoven%27s+Treasure+Tail+2014+BRRip+XviD+AC3-FWOLF","amp;tr":["udp%3A%2F%2Ftracker.openbittorrent.com%3A80","udp%3A%2F%2Fopen.demonii.com%3A1337","udp%3A%2F%2Ftracker.coppersurfer.tk%3A6969","udp%3A%2F%2Fexodus.desync.com%3A6969"],"infoHash":"c4362df9056b0889d6f2ebdef6c76236deda6b8d","infoHashBuffer":{"type":"Buffer","data":[196,54,45,249,5,107,8,137,214,242,235,222,246,199,98,54,222,218,107,141]},"announce":[],"urlList":[]}}